<svg width="60" height="70" fill="none" xmlns="http://www.w3.org/2000/svg"><g filter="url(#filter0_dii_1_189)"><path d="M50 20c0 16.046-20 30-20 30S10 36.046 10 20C10 8.954 18.954 0 30 0s20 8.954 20 20z" fill="url(#paint0_linear_1_189)"/></g><g clip-path="url(#clip0_1_189)"><path d="M26.667 21.667s1.25 1.666 3.333 1.666 3.333-1.666 3.333-1.666M27.5 17.5h.008m4.992 0h.008m5.825 2.5a8.333 8.333 0 11-16.666 0 8.333 8.333 0 0116.666 0z" stroke="#fff" stroke-width="2" stroke-linecap="round" stroke-linejoin="round"/></g><defs><linearGradient id="paint0_linear_1_189" x1="30" y1="0" x2="30" y2="50" gradientUnits="userSpaceOnUse"><stop stop-color="#409FFF"/><stop offset="1" stop-color="#007FFF"/></linearGradient><clipPath id="clip0_1_189"><path fill="#fff" transform="translate(20 10)" d="M0 0h20v20H0z"/></clipPath><filter id="filter0_dii_1_189" x="0" y="0" width="60" height="70" filterUnits="userSpaceOnUse" color-interpolation-filters="sRGB"><feFlood flood-opacity="0" result="BackgroundImageFix"/><feColorMatrix in="SourceAlpha" values="0 0 0 0 0 0 0 0 0 0 0 0 0 0 0 0 0 0 127 0" result="hardAlpha"/><feOffset dy="10"/><feGaussianBlur stdDeviation="5"/><feComposite in2="hardAlpha" operator="out"/><feColorMatrix values="0 0 0 0 0 0 0 0 0 0.12549 0 0 0 0 0.25098 0 0 0 0.1 0"/><feBlend in2="BackgroundImageFix" result="effect1_dropShadow_1_189"/><feBlend in="SourceGraphic" in2="effect1_dropShadow_1_189" result="shape"/><feColorMatrix in="SourceAlpha" values="0 0 0 0 0 0 0 0 0 0 0 0 0 0 0 0 0 0 127 0" result="hardAlpha"/><feOffset dy="-2"/><feComposite in2="hardAlpha" operator="arithmetic" k2="-1" k3="1"/><feColorMatrix values="0 0 0 0 0 0 0 0 0 0.12549 0 0 0 0 0.25098 0 0 0 0.1 0"/><feBlend in2="shape" result="effect2_innerShadow_1_189"/><feColorMatrix in="SourceAlpha" values="0 0 0 0 0 0 0 0 0 0 0 0 0 0 0 0 0 0 127 0" result="hardAlpha"/><feOffset dy="2"/><feComposite in2="hardAlpha" operator="arithmetic" k2="-1" k3="1"/><feColorMatrix values="0 0 0 0 1 0 0 0 0 1 0 0 0 0 1 0 0 0 0.25 0"/><feBlend in2="effect2_innerShadow_1_189" result="effect3_innerShadow_1_189"/></filter></defs></svg>