<svg width="60" height="70" fill="none" xmlns="http://www.w3.org/2000/svg"><g filter="url(#filter0_dii_1_201)"><path d="M50 20c0 16.046-20 30-20 30S10 36.046 10 20C10 8.954 18.954 0 30 0s20 8.954 20 20z" fill="url(#paint0_linear_1_201)"/></g><g clip-path="url(#clip0_1_201)"><path d="M36.983 12.883l-3.65-1.216a3.333 3.333 0 11-6.666 0l-3.65 1.216a1.667 1.667 0 00-1.117 1.859l.483 2.891a.834.834 0 00.825.7H25v8.334c0 .916.75 1.666 1.667 1.666h6.666A1.667 1.667 0 0035 26.667v-8.334h1.792a.833.833 0 00.825-.7l.483-2.891a1.666 1.666 0 00-1.117-1.859v0z" stroke="#fff" stroke-width="2" stroke-linecap="round" stroke-linejoin="round"/></g><defs><linearGradient id="paint0_linear_1_201" x1="30" y1="0" x2="30" y2="50" gradientUnits="userSpaceOnUse"><stop stop-color="#409FFF"/><stop offset="1" stop-color="#007FFF"/></linearGradient><clipPath id="clip0_1_201"><path fill="#fff" transform="translate(20 10)" d="M0 0h20v20H0z"/></clipPath><filter id="filter0_dii_1_201" x="0" y="0" width="60" height="70" filterUnits="userSpaceOnUse" color-interpolation-filters="sRGB"><feFlood flood-opacity="0" result="BackgroundImageFix"/><feColorMatrix in="SourceAlpha" values="0 0 0 0 0 0 0 0 0 0 0 0 0 0 0 0 0 0 127 0" result="hardAlpha"/><feOffset dy="10"/><feGaussianBlur stdDeviation="5"/><feComposite in2="hardAlpha" operator="out"/><feColorMatrix values="0 0 0 0 0 0 0 0 0 0.12549 0 0 0 0 0.25098 0 0 0 0.1 0"/><feBlend in2="BackgroundImageFix" result="effect1_dropShadow_1_201"/><feBlend in="SourceGraphic" in2="effect1_dropShadow_1_201" result="shape"/><feColorMatrix in="SourceAlpha" values="0 0 0 0 0 0 0 0 0 0 0 0 0 0 0 0 0 0 127 0" result="hardAlpha"/><feOffset dy="-2"/><feComposite in2="hardAlpha" operator="arithmetic" k2="-1" k3="1"/><feColorMatrix values="0 0 0 0 0 0 0 0 0 0.12549 0 0 0 0 0.25098 0 0 0 0.1 0"/><feBlend in2="shape" result="effect2_innerShadow_1_201"/><feColorMatrix in="SourceAlpha" values="0 0 0 0 0 0 0 0 0 0 0 0 0 0 0 0 0 0 127 0" result="hardAlpha"/><feOffset dy="2"/><feComposite in2="hardAlpha" operator="arithmetic" k2="-1" k3="1"/><feColorMatrix values="0 0 0 0 1 0 0 0 0 1 0 0 0 0 1 0 0 0 0.25 0"/><feBlend in2="effect2_innerShadow_1_201" result="effect3_innerShadow_1_201"/></filter></defs></svg>