<svg width="20" height="20" fill="none" xmlns="http://www.w3.org/2000/svg"><g clip-path="url(#clip0_1_203)"><path d="M16.983 2.883l-3.65-1.216a3.333 3.333 0 11-6.666 0l-3.65 1.216A1.667 1.667 0 001.9 4.742l.483 2.891a.833.833 0 00.825.7H5v8.334c0 .916.75 1.666 1.667 1.666h6.666A1.667 1.667 0 0015 16.667V8.333h1.792a.833.833 0 00.825-.7l.483-2.891a1.667 1.667 0 00-1.117-1.859v0z" stroke="#fff" stroke-width="2" stroke-linecap="round" stroke-linejoin="round"/></g><defs><clipPath id="clip0_1_203"><path fill="#fff" d="M0 0h20v20H0z"/></clipPath></defs></svg>