<svg width="19" height="20" fill="none" xmlns="http://www.w3.org/2000/svg"><path d="M7.125 14.75v-1a1 1 0 00-1 1h1zm4.75 0h1a1 1 0 00-1-1v1zM6.333 4.25a1 1 0 100 2v-2zm.008 2a1 1 0 100-2v2zm6.326-2a1 1 0 100 2v-2zm.008 2a1 1 0 100-2v2zm-3.175-2a1 1 0 000 2v-2zm.008 2a1 1 0 000-2v2zM9.5 7.417a1 1 0 100 2v-2zm.008 2a1 1 0 000-2v2zM9.5 10.584a1 1 0 100 2v-2zm.008 2a1 1 0 100-2v2zm3.159-5.167a1 1 0 100 2v-2zm.008 2a1 1 0 100-2v2zm-.008 1.167a1 1 0 100 2v-2zm.008 2a1 1 0 100-2v2zM6.333 7.417a1 1 0 100 2v-2zm.008 2a1 1 0 000-2v2zm-.008 1.167a1 1 0 100 2v-2zm.008 2a1 1 0 100-2v2zm-1.591-9.5h9.5v-2h-9.5v2zm9.5 0c.322 0 .583.26.583.583h2a2.583 2.583 0 00-2.583-2.583v2zm.583.583v12.666h2V3.668h-2zm0 12.666a.583.583 0 01-.583.584v2a2.583 2.583 0 002.583-2.584h-2zm-.583.584h-9.5v2h9.5v-2zm-9.5 0a.583.583 0 01-.583-.584h-2a2.583 2.583 0 002.583 2.584v-2zm-.583-.584V3.668h-2v12.667h2zm0-12.666c0-.322.26-.583.583-.583v-2a2.583 2.583 0 00-2.583 2.583h2zm3.958 14.25V14.75h-2v3.167h2zm-1-2.167h4.75v-2h-4.75v2zm3.75-1v3.167h2V14.75h-2zm-4.542-8.5h.008v-2h-.008v2zm6.334 0h.008v-2h-.008v2zm-3.167 0h.008v-2H9.5v2zm0 3.167h.008v-2H9.5v2zm0 3.167h.008v-2H9.5v2zm3.167-3.167h.008v-2h-.008v2zm0 3.167h.008v-2h-.008v2zM6.333 9.417h.008v-2h-.008v2zm0 3.167h.008v-2h-.008v2z" fill="#fff"/></svg>