<svg width="322" height="80" viewBox="0 0 322 80" fill="none" xmlns="http://www.w3.org/2000/svg">
<path d="M93.6639 47.1139L90.2627 41.7965C89.6563 40.8544 89.1609 40.2316 88.7777 39.9283C88.3945 39.6249 87.8038 39.4732 87.0052 39.4732H85.0651V47.1139H83.1969V39.4732H81.2567C80.4586 39.4732 79.8675 39.6249 79.4843 39.9283C79.1173 40.2316 78.622 40.8544 77.9992 41.7965L74.598 47.1139H72.4663L76.3226 41.1498C76.8816 40.2875 77.3286 39.6728 77.6639 39.3055C78.0155 38.9223 78.4064 38.6588 78.8376 38.5151C78.5022 38.3554 78.1751 38.0999 77.8555 37.7486C77.5365 37.3813 77.113 36.8065 76.5861 36.0241L72.8975 30.3474H75.0292L78.2627 35.3774C78.8855 36.3354 79.3808 36.9662 79.7477 37.2696C80.131 37.557 80.7221 37.7007 81.5202 37.7007H83.1969V30.3474H85.0651V37.7007H86.7418C87.5561 37.7007 88.1473 37.549 88.5142 37.2456C88.8974 36.9422 89.3928 36.3195 89.9993 35.3774L93.2328 30.3474H95.3645L91.6999 36.0241C90.7418 37.4292 89.9916 38.2596 89.4483 38.5151C89.8637 38.6588 90.2388 38.9143 90.5741 39.2815C90.9257 39.6488 91.3885 40.2716 91.9633 41.1498L95.7957 47.1139H93.6639Z" fill="white"/>
<path d="M110.655 47.1139L107.254 41.7965C106.631 40.8544 106.128 40.2316 105.745 39.9283C105.378 39.6249 104.795 39.4732 103.996 39.4732H101.266V47.1139H99.3975V30.3474H101.266V37.7007H103.733C104.531 37.7007 105.114 37.557 105.481 37.2696C105.865 36.9662 106.368 36.3354 106.99 35.3774L110.224 30.3474H112.356L108.667 36.0241C108.14 36.8065 107.717 37.3813 107.397 37.7486C107.078 38.0999 106.751 38.3554 106.415 38.5151C106.847 38.6588 107.23 38.9223 107.565 39.3055C107.917 39.6728 108.372 40.2875 108.93 41.1498L112.787 47.1139H110.655Z" fill="white"/>
<path d="M123.989 30.3474H130.456C131.606 30.3474 132.579 30.4991 133.378 30.8025C134.176 31.0899 134.759 31.4812 135.126 31.9762C135.51 32.4711 135.773 32.9422 135.917 33.3893C136.061 33.8364 136.132 34.3075 136.132 34.8025C136.132 36.5909 135.398 37.7806 133.929 38.3714C134.807 38.5789 135.502 39.042 136.013 39.7606C136.523 40.4632 136.779 41.3095 136.779 42.2995C136.779 45.5091 134.711 47.1139 130.576 47.1139H123.989V30.3474ZM127.294 33.4612V37.054H130.815C131.613 37.054 132.18 36.8783 132.516 36.5271C132.851 36.1598 133.019 35.7366 133.019 35.2576C133.019 34.06 132.284 33.4612 130.815 33.4612H127.294ZM127.294 39.9043V43.9762H131.27C132.116 43.9762 132.723 43.7925 133.091 43.4253C133.474 43.042 133.665 42.547 133.665 41.9402C133.665 41.3654 133.466 40.8863 133.067 40.5031C132.683 40.1039 132.085 39.9043 131.27 39.9043H127.294Z" fill="white"/>
<path d="M141.699 32.6947C143.359 31.018 145.371 30.1797 147.734 30.1797C150.098 30.1797 152.11 31.018 153.77 32.6947C155.447 34.3554 156.285 36.3673 156.285 38.7306C156.285 41.0938 155.447 43.1138 153.77 44.7905C152.11 46.4512 150.098 47.2815 147.734 47.2815C145.371 47.2815 143.359 46.4512 141.699 44.7905C140.038 43.1138 139.208 41.0938 139.208 38.7306C139.208 36.3673 140.038 34.3554 141.699 32.6947ZM151.471 34.8264C150.465 33.8045 149.22 33.2935 147.734 33.2935C146.249 33.2935 145.004 33.8045 143.998 34.8264C143.008 35.8483 142.513 37.1497 142.513 38.7306C142.513 40.3274 143.008 41.6368 143.998 42.6587C145.004 43.6647 146.249 44.1677 147.734 44.1677C149.235 44.1677 150.481 43.6647 151.471 42.6587C152.477 41.6368 152.98 40.3274 152.98 38.7306C152.98 37.1497 152.477 35.8483 151.471 34.8264Z" fill="white"/>
<path d="M163.546 36.9342H165.653C166.452 36.9342 167.019 36.7585 167.354 36.4072C167.689 36.04 167.857 35.6168 167.857 35.1378C167.857 33.9082 167.075 33.2935 165.51 33.2935H165.39C164.719 33.2935 163.961 33.4452 163.114 33.7485C162.284 34.0519 161.566 34.4512 160.959 34.9462L158.803 32.9581C159.697 32.1118 160.711 31.4411 161.845 30.9462C162.979 30.4352 164.12 30.1797 165.27 30.1797H165.438C166.3 30.1956 167.067 30.3074 167.737 30.515C168.424 30.7226 168.959 30.9861 169.342 31.3054C169.741 31.6088 170.069 31.9681 170.324 32.3833C170.579 32.7985 170.747 33.1897 170.827 33.5569C170.923 33.9242 170.971 34.2994 170.971 34.6827C170.971 35.5929 170.763 36.3913 170.348 37.0779C169.933 37.7645 169.382 38.2435 168.695 38.515C169.558 38.7226 170.236 39.1777 170.731 39.8803C171.242 40.5829 171.498 41.4292 171.498 42.4192C171.498 43.8723 170.995 45.0459 169.989 45.9402C168.999 46.8184 167.434 47.2655 165.294 47.2815H165.126C163.865 47.2815 162.651 47.0021 161.486 46.4432C160.32 45.8843 159.314 45.1417 158.468 44.2156L160.623 42.2276C161.214 42.8024 161.933 43.2735 162.779 43.6408C163.641 43.992 164.464 44.1677 165.246 44.1677H165.366C167.362 44.1358 168.36 43.4332 168.36 42.0599C168.36 41.4851 168.16 41.006 167.761 40.6228C167.378 40.2236 166.779 40.024 165.965 40.024H163.546V36.9342Z" fill="white"/>
<path d="M175.011 30.3474H180.52C182.819 30.3474 184.639 30.9542 185.981 32.1678C187.322 33.3654 187.993 34.9063 187.993 36.7905C187.993 38.6907 187.322 40.2476 185.981 41.4612C184.639 42.6588 182.819 43.2576 180.52 43.2576H178.316V47.1139H175.011V30.3474ZM178.316 40.1438H180.783C181.949 40.1438 182.915 39.8644 183.681 39.3055C184.464 38.7466 184.855 37.9083 184.855 36.7905C184.855 35.7207 184.464 34.8983 183.681 34.3235C182.899 33.7486 181.933 33.4612 180.783 33.4612H178.316V40.1438Z" fill="white"/>
<path d="M193.025 32.6947C194.685 31.018 196.697 30.1797 199.061 30.1797C201.424 30.1797 203.436 31.018 205.097 32.6947C206.773 34.3554 207.612 36.3673 207.612 38.7306C207.612 41.0938 206.773 43.1138 205.097 44.7905C203.436 46.4512 201.424 47.2815 199.061 47.2815C196.697 47.2815 194.685 46.4512 193.025 44.7905C191.364 43.1138 190.534 41.0938 190.534 38.7306C190.534 36.3673 191.364 34.3554 193.025 32.6947ZM202.797 34.8264C201.791 33.8045 200.546 33.2935 199.061 33.2935C197.576 33.2935 196.33 33.8045 195.324 34.8264C194.334 35.8483 193.839 37.1497 193.839 38.7306C193.839 40.3274 194.334 41.6368 195.324 42.6587C196.33 43.6647 197.576 44.1677 199.061 44.1677C200.561 44.1677 201.807 43.6647 202.797 42.6587C203.803 41.6368 204.306 40.3274 204.306 38.7306C204.306 37.1497 203.803 35.8483 202.797 34.8264Z" fill="white"/>
<path d="M229.192 47.1139L225.743 41.7247C225.344 41.1339 225.001 40.7346 224.713 40.5271C224.426 40.3195 224.011 40.2157 223.468 40.2157H222.558V47.1139H219.252V40.2157H218.342C217.783 40.2157 217.36 40.3195 217.072 40.5271C216.785 40.7346 216.45 41.1339 216.066 41.7247L212.617 47.1139H208.881L212.977 40.7187C213.743 39.537 214.422 38.8105 215.013 38.539C214.502 38.2676 213.855 37.5969 213.072 36.5271L209.144 30.3474H212.881L216.162 35.5211C216.562 36.1119 216.905 36.5111 217.192 36.7187C217.48 36.9262 217.895 37.03 218.438 37.03H219.252V30.3474H222.558V37.03H223.348C223.891 37.03 224.306 36.9262 224.593 36.7187C224.897 36.5111 225.24 36.1119 225.623 35.5211L228.929 30.3474H232.665L228.713 36.5271C227.979 37.565 227.34 38.2357 226.797 38.539C227.388 38.8265 228.067 39.553 228.833 40.7187L232.929 47.1139H229.192Z" fill="white"/>
<path d="M252.112 50.2037H248.806V47.1139H237.884V50.2037H234.579V44.0001H236.806L242.411 30.3474H244.375L249.908 44.0001H252.112V50.2037ZM243.345 36.4073L240.351 44.0001H246.363L243.345 36.4073Z" fill="white"/>
<path d="M258.594 37.1259H265.851V40.2396H258.594V44.0001H266.45V47.1139H255.289V30.3474H266.45V33.4612H258.594V37.1259Z" fill="white"/>
<path d="M283.115 47.1139H279.81V40.2396H273.319V47.1139H270.014V30.3474H273.319V37.1259H279.81V30.3474H283.115V47.1139Z" fill="white"/>
<path d="M300.655 47.1139H297.349V36.551L289.397 47.1139H287.457V30.3474H290.762V40.9103L298.691 30.3474H300.655V47.1139Z" fill="white"/>
<path d="M308.516 37.1259H315.774V40.2396H308.516V44.0001H316.373V47.1139H305.211V30.3474H316.373V33.4612H308.516V37.1259Z" fill="white"/>
<path d="M33.5203 42.5659V13.4132L27.7718 9.10181L18.1909 16.2874V47.2554C21.8575 45.9084 25.978 44.7299 30.0622 43.5617C31.2215 43.2301 32.3779 42.8994 33.5203 42.5659Z" fill="white"/>
<path d="M33.0411 42.7054V13.054L32.083 12.3354V42.9824C32.4032 42.8902 32.7226 42.7979 33.0411 42.7054Z" fill="#002040"/>
<path d="M31.6041 43.1202V11.9761L30.646 11.2576V43.3948C30.9658 43.3033 31.2852 43.2118 31.6041 43.1202Z" fill="#002040"/>
<path d="M30.1671 43.5318V10.8983L29.209 10.1797V43.8059C29.4935 43.7245 29.778 43.6431 30.0624 43.5617C30.0972 43.5518 30.1321 43.5418 30.1671 43.5318Z" fill="#002040"/>
<path d="M28.7296 43.9432V9.82037L27.7715 9.10181V44.2187C28.0906 44.1267 28.41 44.0348 28.7296 43.9432Z" fill="#002040"/>
<path d="M42.143 39.7701V31.1376L37.8317 28.7424L30.167 32.0957V43.5317C34.3816 42.3262 38.5532 41.1303 42.143 39.7701Z" fill="white"/>
<path d="M41.6637 39.9496V30.8716L40.7056 30.3394V40.2959C41.0289 40.1816 41.3483 40.0662 41.6637 39.9496Z" fill="#002040"/>
<path d="M40.2266 40.4637V30.0733L39.2686 29.541V40.7895C39.5911 40.6818 39.9106 40.5732 40.2266 40.4637Z" fill="#002040"/>
<path d="M38.7896 40.948V29.2747L37.8315 28.7424V41.258C38.1535 41.1554 38.4729 41.0521 38.7896 40.948Z" fill="#002040"/>
<path d="M24.4182 45.2054V28.2634L18.6697 24.9102L9.08887 30.1796V51.9229C12.5811 49.1099 18.2765 47.0598 24.4182 45.2054Z" fill="white"/>
<path d="M23.9395 45.3507V27.9839L22.9814 27.425V45.6459C23.2992 45.5469 23.6187 45.4485 23.9395 45.3507Z" fill="#002040"/>
<path d="M19.628 46.7433C19.3057 46.8548 18.9862 46.9674 18.6699 47.0812V24.9102L19.628 25.4691V46.7433Z" fill="#002040"/>
<path d="M21.065 46.2589C20.7432 46.3647 20.4238 46.4714 20.1069 46.5791V25.7485L21.065 26.3074V46.2589Z" fill="#002040"/>
<path d="M22.502 45.7963C22.1808 45.8976 21.8613 45.9996 21.5439 46.1025V26.5869L22.502 27.1458V45.7963Z" fill="#002040"/>
<path d="M23.9116 53.3572C23.9208 53.3544 23.93 53.351 23.9392 53.3477V53.3735L23.9116 53.3572Z" fill="white"/>
<path d="M59.1489 33.7726C57.9153 51.4971 6.21487 50.06 9.08907 66.3474C-9.354 43.1139 50.1951 45.9881 52.6818 31.3774C54.598 20.1199 27.5322 4.79053 27.5322 4.79053C27.5322 4.79053 60.1659 19.1618 59.1489 33.7726Z" fill="white"/>
<path d="M64.1786 37.8443C62.3132 57.4328 8.84945 58.2036 17.7117 75.2096C-5.28238 53.8923 57.8016 54.8503 61.3043 36.1677C62.9211 27.5449 55.0768 21.0779 55.0768 21.0779C55.0768 21.0779 65.1367 27.7845 64.1786 37.8443Z" fill="white"/>
</svg>
