<svg width="20" height="20" viewBox="0 0 20 20" fill="none" xmlns="http://www.w3.org/2000/svg">
<path d="M7.50016 18.3332V14.9998H12.5002V18.3332M6.66683 4.99984H6.67516M13.3335 4.99984H13.3418M10.0002 4.99984H10.0085M10.0002 8.33317H10.0085M10.0002 11.6665H10.0085M13.3335 8.33317H13.3418M13.3335 11.6665H13.3418M6.66683 8.33317H6.67516M6.66683 11.6665H6.67516M5.00016 1.6665H15.0002C15.9206 1.6665 16.6668 2.4127 16.6668 3.33317V16.6665C16.6668 17.587 15.9206 18.3332 15.0002 18.3332H5.00016C4.07969 18.3332 3.3335 17.587 3.3335 16.6665V3.33317C3.3335 2.4127 4.07969 1.6665 5.00016 1.6665Z" stroke="#007FFF" stroke-width="1.5" stroke-linecap="round" stroke-linejoin="round"/>
</svg>
