<svg width="20" height="20" viewBox="0 0 20 20" fill="none" xmlns="http://www.w3.org/2000/svg">
<g clip-path="url(#clip0_1_203)">
<path d="M16.9832 2.88341L13.3332 1.66675C13.3332 2.5508 12.9821 3.39865 12.3569 4.02377C11.7318 4.64889 10.884 5.00008 9.99991 5.00008C9.11586 5.00008 8.26801 4.64889 7.64289 4.02377C7.01777 3.39865 6.66658 2.5508 6.66658 1.66675L3.01658 2.88341C2.6394 3.00908 2.31956 3.26543 2.11479 3.6062C1.91002 3.94697 1.83381 4.34972 1.89991 4.74175L2.38324 7.63341C2.41497 7.82918 2.51548 8.0072 2.6667 8.13551C2.81791 8.26381 3.00993 8.33399 3.20824 8.33342H4.99991V16.6667C4.99991 17.5834 5.74991 18.3334 6.66658 18.3334H13.3332C13.7753 18.3334 14.1992 18.1578 14.5118 17.8453C14.8243 17.5327 14.9999 17.1088 14.9999 16.6667V8.33342H16.7916C16.9899 8.33399 17.1819 8.26381 17.3331 8.13551C17.4843 8.0072 17.5848 7.82918 17.6166 7.63341L18.0999 4.74175C18.166 4.34972 18.0898 3.94697 17.885 3.6062C17.6803 3.26543 17.3604 3.00908 16.9832 2.88341V2.88341Z" stroke="white" stroke-width="2" stroke-linecap="round" stroke-linejoin="round"/>
</g>
<defs>
<clipPath id="clip0_1_203">
<rect width="20" height="20" fill="white"/>
</clipPath>
</defs>
</svg>
