<svg width="60" height="70" viewBox="0 0 60 70" fill="none" xmlns="http://www.w3.org/2000/svg">
<g filter="url(#filter0_dii_1_478)">
<path d="M50 20C50 36.0457 30 50 30 50C30 50 10 36.0457 10 20C10 8.9543 18.9543 0 30 0C41.0457 0 50 8.9543 50 20Z" fill="url(#paint0_linear_1_478)"/>
</g>
<g clip-path="url(#clip0_1_478)">
<path d="M30 23.3334V20.0001M30 16.6667H30.0083M38.3333 20.0001C38.3333 24.6025 34.6024 28.3334 30 28.3334C25.3976 28.3334 21.6667 24.6025 21.6667 20.0001C21.6667 15.3977 25.3976 11.6667 30 11.6667C34.6024 11.6667 38.3333 15.3977 38.3333 20.0001Z" stroke="white" stroke-width="2" stroke-linecap="round" stroke-linejoin="round"/>
</g>
<defs>
<filter id="filter0_dii_1_478" x="0" y="0" width="60" height="70" filterUnits="userSpaceOnUse" color-interpolation-filters="sRGB">
<feFlood flood-opacity="0" result="BackgroundImageFix"/>
<feColorMatrix in="SourceAlpha" type="matrix" values="0 0 0 0 0 0 0 0 0 0 0 0 0 0 0 0 0 0 127 0" result="hardAlpha"/>
<feOffset dy="10"/>
<feGaussianBlur stdDeviation="5"/>
<feComposite in2="hardAlpha" operator="out"/>
<feColorMatrix type="matrix" values="0 0 0 0 0 0 0 0 0 0.12549 0 0 0 0 0.25098 0 0 0 0.1 0"/>
<feBlend mode="normal" in2="BackgroundImageFix" result="effect1_dropShadow_1_478"/>
<feBlend mode="normal" in="SourceGraphic" in2="effect1_dropShadow_1_478" result="shape"/>
<feColorMatrix in="SourceAlpha" type="matrix" values="0 0 0 0 0 0 0 0 0 0 0 0 0 0 0 0 0 0 127 0" result="hardAlpha"/>
<feOffset dy="-2"/>
<feComposite in2="hardAlpha" operator="arithmetic" k2="-1" k3="1"/>
<feColorMatrix type="matrix" values="0 0 0 0 0 0 0 0 0 0.12549 0 0 0 0 0.25098 0 0 0 0.1 0"/>
<feBlend mode="normal" in2="shape" result="effect2_innerShadow_1_478"/>
<feColorMatrix in="SourceAlpha" type="matrix" values="0 0 0 0 0 0 0 0 0 0 0 0 0 0 0 0 0 0 127 0" result="hardAlpha"/>
<feOffset dy="2"/>
<feComposite in2="hardAlpha" operator="arithmetic" k2="-1" k3="1"/>
<feColorMatrix type="matrix" values="0 0 0 0 1 0 0 0 0 1 0 0 0 0 1 0 0 0 0.25 0"/>
<feBlend mode="normal" in2="effect2_innerShadow_1_478" result="effect3_innerShadow_1_478"/>
</filter>
<linearGradient id="paint0_linear_1_478" x1="30" y1="0" x2="30" y2="50" gradientUnits="userSpaceOnUse">
<stop stop-color="#409FFF"/>
<stop offset="1" stop-color="#007FFF"/>
</linearGradient>
<clipPath id="clip0_1_478">
<rect width="20" height="20" fill="white" transform="translate(20 10)"/>
</clipPath>
</defs>
</svg>
