<svg width="60" height="70" viewBox="0 0 60 70" fill="none" xmlns="http://www.w3.org/2000/svg">
<g filter="url(#filter0_dii_1_183)">
<path d="M50 20C50 36.0457 30 50 30 50C30 50 10 36.0457 10 20C10 8.9543 18.9543 0 30 0C41.0457 0 50 8.9543 50 20Z" fill="url(#paint0_linear_1_183)"/>
</g>
<path d="M27.5 28.3334V20.0001H32.5V28.3334M22.5 17.5001L30 11.6667L37.5 17.5001V26.6667C37.5 27.1088 37.3244 27.5327 37.0118 27.8453C36.6993 28.1578 36.2754 28.3334 35.8333 28.3334H24.1667C23.7246 28.3334 23.3007 28.1578 22.9882 27.8453C22.6756 27.5327 22.5 27.1088 22.5 26.6667V17.5001Z" stroke="white" stroke-width="2" stroke-linecap="round" stroke-linejoin="round"/>
<defs>
<filter id="filter0_dii_1_183" x="0" y="0" width="60" height="70" filterUnits="userSpaceOnUse" color-interpolation-filters="sRGB">
<feFlood flood-opacity="0" result="BackgroundImageFix"/>
<feColorMatrix in="SourceAlpha" type="matrix" values="0 0 0 0 0 0 0 0 0 0 0 0 0 0 0 0 0 0 127 0" result="hardAlpha"/>
<feOffset dy="10"/>
<feGaussianBlur stdDeviation="5"/>
<feComposite in2="hardAlpha" operator="out"/>
<feColorMatrix type="matrix" values="0 0 0 0 0 0 0 0 0 0.12549 0 0 0 0 0.25098 0 0 0 0.1 0"/>
<feBlend mode="normal" in2="BackgroundImageFix" result="effect1_dropShadow_1_183"/>
<feBlend mode="normal" in="SourceGraphic" in2="effect1_dropShadow_1_183" result="shape"/>
<feColorMatrix in="SourceAlpha" type="matrix" values="0 0 0 0 0 0 0 0 0 0 0 0 0 0 0 0 0 0 127 0" result="hardAlpha"/>
<feOffset dy="-2"/>
<feComposite in2="hardAlpha" operator="arithmetic" k2="-1" k3="1"/>
<feColorMatrix type="matrix" values="0 0 0 0 0 0 0 0 0 0.12549 0 0 0 0 0.25098 0 0 0 0.1 0"/>
<feBlend mode="normal" in2="shape" result="effect2_innerShadow_1_183"/>
<feColorMatrix in="SourceAlpha" type="matrix" values="0 0 0 0 0 0 0 0 0 0 0 0 0 0 0 0 0 0 127 0" result="hardAlpha"/>
<feOffset dy="2"/>
<feComposite in2="hardAlpha" operator="arithmetic" k2="-1" k3="1"/>
<feColorMatrix type="matrix" values="0 0 0 0 1 0 0 0 0 1 0 0 0 0 1 0 0 0 0.25 0"/>
<feBlend mode="normal" in2="effect2_innerShadow_1_183" result="effect3_innerShadow_1_183"/>
</filter>
<linearGradient id="paint0_linear_1_183" x1="30" y1="0" x2="30" y2="50" gradientUnits="userSpaceOnUse">
<stop stop-color="#409FFF"/>
<stop offset="1" stop-color="#007FFF"/>
</linearGradient>
</defs>
</svg>
