<svg width="19" height="20" viewBox="0 0 19 20" fill="none" xmlns="http://www.w3.org/2000/svg">
<g id="Vector">
<path id="Vector_2" d="M7.12501 14.7502V13.7502C6.57272 13.7502 6.12501 14.1979 6.12501 14.7502H7.12501ZM11.875 14.7502H12.875C12.875 14.1979 12.4273 13.7502 11.875 13.7502V14.7502ZM6.33334 4.25016C5.78105 4.25016 5.33334 4.69788 5.33334 5.25016C5.33334 5.80245 5.78105 6.25016 6.33334 6.25016V4.25016ZM6.34126 6.25016C6.89354 6.25016 7.34126 5.80245 7.34126 5.25016C7.34126 4.69788 6.89354 4.25016 6.34126 4.25016V6.25016ZM12.6667 4.25016C12.1144 4.25016 11.6667 4.69788 11.6667 5.25016C11.6667 5.80245 12.1144 6.25016 12.6667 6.25016V4.25016ZM12.6746 6.25016C13.2269 6.25016 13.6746 5.80245 13.6746 5.25016C13.6746 4.69788 13.2269 4.25016 12.6746 4.25016V6.25016ZM9.5 4.25016C8.94772 4.25016 8.5 4.69788 8.5 5.25016C8.5 5.80245 8.94772 6.25016 9.5 6.25016V4.25016ZM9.50792 6.25016C10.0602 6.25016 10.5079 5.80245 10.5079 5.25016C10.5079 4.69788 10.0602 4.25016 9.50792 4.25016V6.25016ZM9.5 7.41683C8.94772 7.41683 8.5 7.86454 8.5 8.41683C8.5 8.96911 8.94772 9.41683 9.5 9.41683V7.41683ZM9.50792 9.41683C10.0602 9.41683 10.5079 8.96911 10.5079 8.41683C10.5079 7.86454 10.0602 7.41683 9.50792 7.41683V9.41683ZM9.5 10.5835C8.94772 10.5835 8.5 11.0312 8.5 11.5835C8.5 12.1358 8.94772 12.5835 9.5 12.5835V10.5835ZM9.50792 12.5835C10.0602 12.5835 10.5079 12.1358 10.5079 11.5835C10.5079 11.0312 10.0602 10.5835 9.50792 10.5835V12.5835ZM12.6667 7.41683C12.1144 7.41683 11.6667 7.86454 11.6667 8.41683C11.6667 8.96911 12.1144 9.41683 12.6667 9.41683V7.41683ZM12.6746 9.41683C13.2269 9.41683 13.6746 8.96911 13.6746 8.41683C13.6746 7.86454 13.2269 7.41683 12.6746 7.41683V9.41683ZM12.6667 10.5835C12.1144 10.5835 11.6667 11.0312 11.6667 11.5835C11.6667 12.1358 12.1144 12.5835 12.6667 12.5835V10.5835ZM12.6746 12.5835C13.2269 12.5835 13.6746 12.1358 13.6746 11.5835C13.6746 11.0312 13.2269 10.5835 12.6746 10.5835V12.5835ZM6.33334 7.41683C5.78105 7.41683 5.33334 7.86454 5.33334 8.41683C5.33334 8.96911 5.78105 9.41683 6.33334 9.41683V7.41683ZM6.34126 9.41683C6.89354 9.41683 7.34126 8.96911 7.34126 8.41683C7.34126 7.86454 6.89354 7.41683 6.34126 7.41683V9.41683ZM6.33334 10.5835C5.78105 10.5835 5.33334 11.0312 5.33334 11.5835C5.33334 12.1358 5.78105 12.5835 6.33334 12.5835V10.5835ZM6.34126 12.5835C6.89354 12.5835 7.34126 12.1358 7.34126 11.5835C7.34126 11.0312 6.89354 10.5835 6.34126 10.5835V12.5835ZM4.75001 3.0835H14.25V1.0835H4.75001V3.0835ZM14.25 3.0835C14.5722 3.0835 14.8333 3.34466 14.8333 3.66683H16.8333C16.8333 2.24009 15.6767 1.0835 14.25 1.0835V3.0835ZM14.8333 3.66683V16.3335H16.8333V3.66683H14.8333ZM14.8333 16.3335C14.8333 16.6557 14.5722 16.9168 14.25 16.9168V18.9168C15.6767 18.9168 16.8333 17.7602 16.8333 16.3335H14.8333ZM14.25 16.9168H4.75001V18.9168H14.25V16.9168ZM4.75001 16.9168C4.42784 16.9168 4.16667 16.6557 4.16667 16.3335H2.16667C2.16667 17.7602 3.32327 18.9168 4.75001 18.9168V16.9168ZM4.16667 16.3335V3.66683H2.16667V16.3335H4.16667ZM4.16667 3.66683C4.16667 3.34466 4.42784 3.0835 4.75001 3.0835V1.0835C3.32327 1.0835 2.16667 2.24009 2.16667 3.66683H4.16667ZM8.125 17.9168V14.7502H6.12501V17.9168H8.125ZM7.12501 15.7502H11.875V13.7502H7.12501V15.7502ZM10.875 14.7502V17.9168H12.875V14.7502H10.875ZM6.33334 6.25016H6.34126V4.25016H6.33334V6.25016ZM12.6667 6.25016H12.6746V4.25016H12.6667V6.25016ZM9.5 6.25016H9.50792V4.25016H9.5V6.25016ZM9.5 9.41683H9.50792V7.41683H9.5V9.41683ZM9.5 12.5835H9.50792V10.5835H9.5V12.5835ZM12.6667 9.41683H12.6746V7.41683H12.6667V9.41683ZM12.6667 12.5835H12.6746V10.5835H12.6667V12.5835ZM6.33334 9.41683H6.34126V7.41683H6.33334V9.41683ZM6.33334 12.5835H6.34126V10.5835H6.33334V12.5835Z" fill="white"/>
</g>
</svg>
